<svg width="32" height="32" viewBox="0 0 32 32" fill="none" xmlns="http://www.w3.org/2000/svg">
<path d="M7.36672 28C6.76672 28 6.23339 27.8164 5.76672 27.4493C5.30005 27.0822 4.97783 26.6102 4.80005 26.0333L1.40005 13.7C1.28894 13.2778 1.36139 12.8889 1.61739 12.5333C1.87339 12.1778 2.22316 12 2.66672 12H9.00005L14.8667 3.26667C14.9778 3.08889 15.1334 2.94445 15.3334 2.83333C15.5334 2.72222 15.7445 2.66667 15.9667 2.66667C16.1889 2.66667 16.4001 2.72222 16.6001 2.83333C16.8001 2.94445 16.9556 3.08889 17.0667 3.26667L22.9334 12H29.3334C29.7778 12 30.1281 12.1778 30.3841 12.5333C30.6401 12.8889 30.7121 13.2778 30.6001 13.7L27.2001 26.0333C27.0223 26.6111 26.7001 27.0836 26.2334 27.4507C25.7667 27.8178 25.2334 28.0009 24.6334 28H7.36672ZM7.33339 25.3333H24.6667L27.6001 14.6667H4.40005L7.33339 25.3333ZM16.0001 22.6667C16.7334 22.6667 17.3614 22.4058 17.8841 21.884C18.4067 21.3622 18.6676 20.7342 18.6667 20C18.6658 19.2658 18.4049 18.6382 17.8841 18.1173C17.3632 17.5964 16.7352 17.3351 16.0001 17.3333C15.2649 17.3316 14.6374 17.5929 14.1174 18.1173C13.5974 18.6418 13.3361 19.2693 13.3334 20C13.3307 20.7307 13.5921 21.3587 14.1174 21.884C14.6427 22.4093 15.2703 22.6702 16.0001 22.6667ZM12.2334 12H19.7334L15.9667 6.4L12.2334 12Z" fill="black"/>
</svg>
